M48
METRIC
T1C0.300
T2C0.600
T3C1.000
T4C0.650
%
G90
G05
T1
X138.4Y-100.15
X139.01Y-91.43
X139.02Y-97.17
X139.05Y-81.87
X139.44Y-94.25
X140.07Y-101.44
X141.25Y-86.0
X141.51Y-105.75
X143.4Y-88.2
X145.5Y-99.65
X147.16Y-91.17
X147.59Y-100.93
X147.6Y-84.8
X148.57Y-98.65
X149.02Y-83.28
X149.02Y-102.4
X149.32Y-96.22
X149.95Y-89.17
X150.34Y-94.46
X150.99Y-101.23
X151.013Y-102.648
X151.25Y-98.93
X152.88Y-100.0
X153.42Y-92.13
X153.45Y-97.47
X153.57Y-90.79
X154.8Y-89.2
X154.98Y-83.19
X155.18Y-94.0
X155.582Y-96.411
X155.9Y-97.25
X156.73Y-93.65
X156.73Y-95.78
X156.8Y-90.0
X157.0Y-92.12
X157.73Y-94.67
X157.9Y-97.25
X158.79Y-93.61
X158.84Y-95.82
X159.93Y-96.87
X160.2Y-92.6
X160.6Y-89.85
X162.2Y-93.4
X162.55Y-80.52
X162.8Y-89.2
X163.267Y-95.918
X165.53Y-97.64
X166.45Y-100.451
X166.68Y-90.5
X166.7Y-92.49
X166.91Y-83.26
X167.17Y-94.05
X167.83Y-89.1
X170.95Y-96.52
X171.671Y-89.999
X172.02Y-104.08
X172.21Y-99.34
X172.98Y-83.26
X173.0Y-86.4
X173.38Y-104.08
X174.55Y-104.06
X175.17Y-95.44
X176.58Y-98.54
X178.8Y-84.8
X184.8Y-84.8
X190.8Y-84.8
X196.8Y-84.8
X202.8Y-84.8
T3
X147.92Y-106.2
X150.46Y-106.2
X153.0Y-106.2
X155.54Y-106.2
X158.08Y-106.2
X160.62Y-106.2
X163.16Y-106.2
X165.7Y-106.2
X168.24Y-106.2
X170.78Y-106.2
X173.32Y-106.2
X175.86Y-106.2
X178.4Y-106.2
T4
X142.04Y-91.36
X142.04Y-97.14
T2
G00X138.69Y-89.93
M15
G01X138.09Y-89.93
M16
G05
G00X138.69Y-98.57
M15
G01X138.09Y-98.57
M16
G05
G00X143.12Y-89.93
M15
G01X142.02Y-89.93
M16
G05
G00X143.12Y-98.57
M15
G01X142.02Y-98.57
M16
G05
M30
